# xmcd
#
# Track frame offsets:
#	150
#	20781
#	34881
#	51561
#	72934
#	84397
#	104171
#	115967
#	136392
#	157996
#	174597
#	192605
#	214266
#
# Disc length: 2963 seconds
#
# Revision: 1
# Processed by: cddbd v1.5.1PL0 Copyright (c) Steve Scherf et al.
# Submitted via: EasyCDDAExtractor 5.0.6
#
DISCID=c80b910d
DTITLE=Soulwax - Any Minute Now
DYEAR=2004
DGENRE=Pop
TTITLE0=E Talking
TTITLE1=Any Minute Now
TTITLE2=Please...Don't Be Yourself
TTITLE3=Compute
TTITLE4=KracK
TTITLE5=Slowdance
TTITLE6=A Ballad To Forget
TTITLE7=Accidents And Compliments
TTITLE8=NY Excuse
TTITLE9=Miserable Girl
TTITLE10=YYY/NNN
TTITLE11=The Truth Is So Boring
TTITLE12=Dance 2 Slow
EXTD=Marten Onnink
EXTT0=
EXTT1=
EXTT2=
EXTT3=
EXTT4=
EXTT5=
EXTT6=
EXTT7=
EXTT8=
EXTT9=
EXTT10=
EXTT11=
EXTT12=
PLAYORDER=
